<?xml version="1.0" encoding="UTF-8"?><svg xmlns="http://www.w3.org/2000/svg" xmlns:xlink="http://www.w3.org/1999/xlink" version="1.1" id="Layer_1" x="0px" y="0px" viewBox="0 0 24 24" xml:space="preserve"><path id="base_color_14_" fill="#F47920" d="M23.908 23.21c-.411-.579-1.077-1.06-1.782-1.569-.76-.547-1.54-1.11-1.93-1.765 1.482-.31 3.357-.87 3.447-.897a.5.5 0 0 0 .24-.8c-.097-.116-2.367-2.78-6.031-4.086-.162-.323-.342-.739-.551-1.218C15.825 9.489 12.76 2.462 4.679 1.517 4.035 1.082 2.347 0 1.5 0 .45 0 0 .449 0 1.5c0 .512.417 1.11 1.097 2.044C1.428 4 1.983 4.764 2 5c0 .818.95 3.468 1.904 4.601l-.082.172C3.4 10.664 3 11.506 3 13.5c0 2.626 1.258 4 2.5 4 .77 0 1.155-.875 1.34-1.9.684 1.39 1.803 3.202 3.371 4.309a.5.5 0 0 0 .577-.817c-2.486-1.756-3.8-5.707-3.813-5.747A.5.5 0 0 0 6 13.5c0 1.373-.262 2.836-.5 3-.721 0-1.5-1.147-1.5-3 0-1.769.32-2.444.726-3.298.075-.16.153-.324.231-.499a.5.5 0 0 0-.13-.582C4.057 8.458 3 5.664 3 5c0-.512-.417-1.11-1.096-2.044C1.572 2.5 1.017 1.736 1 1.5 1 1 1 1 1.5 1c.405 0 1.726.733 2.717 1.413a.5.5 0 0 0 .23.084c7.598.824 10.421 7.299 11.937 10.777.256.586.476 1.093.675 1.463a.5.5 0 0 0 .28.237c2.496.845 4.357 2.426 5.229 3.275-.852.238-2.212.602-3.15.758a.5.5 0 0 0-.403.614c.307 1.23 1.486 2.081 2.525 2.831.637.46 1.237.893 1.552 1.337a.5.5 0 1 0 .816-.578zM4.5 4a.5.5 0 0 0 .5.5.5.5 0 0 1 .5.5.5.5 0 1 0 1 0c0-.827-.673-1.5-1.5-1.5a.5.5 0 0 0-.5.5z"/><metadata><rdf:RDF xmlns:rdf="http://www.w3.org/1999/02/22-rdf-syntax-ns#" xmlns:rdfs="http://www.w3.org/2000/01/rdf-schema#" xmlns:dc="http://purl.org/dc/elements/1.1/"><rdf:Description about="https://iconscout.com/legal#licenses" dc:title="mysql,database,logo,data,base" dc:description="mysql,database,logo,data,base" dc:publisher="Iconscout" dc:date="2017-11-03" dc:format="image/svg+xml" dc:language="en"><dc:creator><rdf:Bag><rdf:li>Those Icons</rdf:li></rdf:Bag></dc:creator></rdf:Description></rdf:RDF></metadata></svg>